<?xml version="1.0" encoding="UTF-8"?>
<!DOCTYPE svg PUBLIC "-//W3C//DTD SVG 1.1//EN" "http://www.w3.org/Graphics/SVG/1.1/DTD/svg11.dtd">
<!-- Creator: CorelDRAW (Versão OEM) -->
<svg xmlns="http://www.w3.org/2000/svg" xml:space="preserve" width="43.6581mm" height="20.3467mm" version="1.1" style="shape-rendering:geometricPrecision; text-rendering:geometricPrecision; image-rendering:optimizeQuality; fill-rule:evenodd; clip-rule:evenodd"
viewBox="0 0 718.93 335.06"
 xmlns:xlink="http://www.w3.org/1999/xlink"
 xmlns:xodm="http://www.corel.com/coreldraw/odm/2003">
 <defs>
  <style type="text/css">
   <![CDATA[
    .fil1 {fill:#C6012D}
    .fil0 {fill:#FFFFFF;fill-rule:nonzero}
   ]]>
  </style>
 </defs>
 <g id="Camada_x0020_1">
  <metadata id="CorelCorpID_0Corel-Layer"/>
  <g id="_1909302293184">
   <path class="fil0" d="M322.3 129.44c-17.37,0 -25.9,8.53 -25.9,25.9l0 24.37c0,17.36 8.53,25.9 25.9,25.9l10.66 0c17.37,0 25.9,-8.53 25.9,-25.9l0 -24.37c0,-17.37 -8.53,-25.9 -25.9,-25.9l-10.66 0zm351.14 155.34c0,-11.27 5.28,-16.76 16.14,-16.76l1.47 0c10.86,0 16.14,5.48 16.14,16.76l0 6.09 -33.75 0 0 -6.09zm45.5 0c0,-17.36 -8.22,-25.89 -24.95,-25.89l-7.34 0c-16.73,0 -24.95,8.53 -24.95,25.89l0 24.37c0,17.37 8.22,25.9 24.95,25.9l7.34 0c16.73,0 24.95,-8.53 24.95,-25.9l-11.74 0c0,11.27 -5.28,16.76 -16.14,16.76l-1.47 0c-10.86,0 -16.14,-5.48 -16.14,-16.76l0 -9.14 45.5 0 0 -15.23zm-449.95 -105.07c0,11.27 -5.48,16.76 -16.76,16.76l-4.57 0c-11.27,0 -16.76,-5.49 -16.76,-16.76l0 -24.37c0,-11.27 5.48,-16.76 16.76,-16.76l4.57 0c11.27,0 16.76,5.48 16.76,16.76l12.19 0c0,-17.37 -8.53,-25.9 -25.9,-25.9l-10.66 0c-17.37,0 -25.9,8.53 -25.9,25.9l0 24.37c0,17.36 8.53,25.9 25.9,25.9l10.66 0c17.37,0 25.9,-8.53 25.9,-25.9l-12.19 0zm377.48 155.34l0 -114.25 -12.19 0 0 44.63c-4.11,-4.27 -9.6,-6.55 -15.99,-6.55l-4.57 0c-17.67,0 -25.13,9.9 -25.13,28.94l0 18.28c0,19.04 7.46,28.94 25.13,28.94l4.57 0c6.86,0 12.49,-2.59 16.6,-7.31l2.44 7.31 9.14 0zm-32.75 -9.14c-9.6,0 -12.95,-6.7 -12.95,-19.8l0 -18.28c0,-13.1 3.35,-19.8 12.95,-19.8l4.57 0c9.29,0 15.99,7.77 15.99,21.33l0 15.23c0,13.56 -6.7,21.33 -15.99,21.33l-4.57 0zm-98.25 9.14l12.19 0 0 -45.7c0,-13.56 5.18,-21.33 14.47,-21.33l2.28 0c11.27,0 16.76,5.48 16.76,16.76l0 50.27 12.19 0 0 -50.27c0,-17.36 -8.53,-25.89 -25.9,-25.89l-5.33 0c-6.4,0 -11.73,2.28 -15.39,6.55l-2.13 -6.55 -9.14 0 0 76.16zm-61.25 -50.27c0,-11.27 5.34,-16.76 16.33,-16.76l1.48 0c10.99,0 16.33,5.48 16.33,16.76l0 6.09 -34.14 0 0 -6.09zm46.02 0c0,-17.36 -8.31,-25.89 -25.24,-25.89l-7.42 0c-16.92,0 -25.24,8.53 -25.24,25.89l0 24.37c0,17.37 8.31,25.9 25.24,25.9l7.42 0c16.92,0 25.24,-8.53 25.24,-25.9l-11.88 0c0,11.27 -5.34,16.76 -16.33,16.76l-1.48 0c-10.99,0 -16.33,-5.48 -16.33,-16.76l0 -9.14 46.02 0 0 -15.23zm-53.01 -41.23c15.03,-1.32 24.13,-12.43 31.38,-37.95l21.63 -76.17 -12.92 0 -16.79 59.1 -16.79 -59.1 -12.92 0 23.09 81.65c-4.54,13.64 -9.44,20.23 -16.69,21.64l0 10.82zm-73.12 -114.11l0 114.25 12.19 0 0 -44.63c4.11,4.27 9.6,6.55 15.99,6.55l4.57 0c17.67,0 25.13,-9.9 25.13,-28.94l0 -18.28c0,-19.04 -7.46,-28.94 -25.13,-28.94l-4.57 0c-6.85,0 -12.49,2.59 -16.6,7.31l-2.44 -7.31 -9.14 0zm28.18 67.03c-9.29,0 -15.99,-7.77 -15.99,-21.33l0 -15.23c0,-13.56 6.7,-21.33 15.99,-21.33l4.57 0c9.6,0 12.95,6.7 12.95,19.8l0 18.28c0,13.1 -3.35,19.8 -12.95,19.8l-4.57 0zm-93.06 50.23c0,-11.27 5.77,-16.76 17.62,-16.76l1.6 0c11.85,0 17.62,5.48 17.62,16.76l0 6.09 -36.83 0 0 -6.09zm49.64 0c0,-17.37 -8.97,-25.9 -27.22,-25.9l-8.01 0c-18.26,0 -27.22,8.53 -27.22,25.9l0 24.37c0,17.36 8.97,25.9 27.22,25.9l8.01 0c18.26,0 27.22,-8.53 27.22,-25.9l-12.81 0c0,11.27 -5.76,16.76 -17.62,16.76l-1.6 0c-11.85,0 -17.62,-5.48 -17.62,-16.76l0 -9.14 49.64 0 0 -15.23zm-77.69 -25.9l-12.19 0 0 45.7c0,13.56 -4.27,21.33 -11.88,21.33l-12.71 0c-9.29,0 -13.71,-5.48 -13.71,-16.76l0 -50.27 -12.19 0 0 50.27c0,17.36 7.62,25.9 23,25.9l15.61 0c5.33,0 9.75,-2.13 12.95,-5.94l1.98 5.94 9.14 0 0 -76.17zm-77.91 0l-9.14 0 -2.44 7.31c-4.11,-4.72 -9.75,-7.31 -16.6,-7.31l-4.57 0c-17.67,0 -25.14,9.9 -25.14,28.94l0 18.28c0,19.04 7.46,28.94 25.14,28.94l4.57 0c6.4,0 11.88,-2.29 15.99,-6.55l0 44.63 12.19 0 0 -114.25zm-32.75 67.03c-9.6,0 -12.95,-6.7 -12.95,-19.8l0 -18.28c0,-13.1 3.35,-19.8 12.95,-19.8l4.57 0c9.29,0 15.99,7.77 15.99,21.33l0 15.23c0,13.56 -6.7,21.33 -15.99,21.33l-4.57 0zm224 47.22l3.35 0 10.36 0 3.35 0 20.41 -76.16 -12.19 0 -16.76 58.18 -16.76 -58.18 -12.19 0 20.41 76.16zm-85.91 -179.71c0,-11.27 5.48,-16.76 16.76,-16.76l4.57 0c11.27,0 16.76,5.48 16.76,16.76l0 24.37c0,11.27 -5.48,16.76 -16.76,16.76l-4.57 0c-11.27,0 -16.76,-5.49 -16.76,-16.76l0 -24.37z"/>
   <path class="fil1" d="M51.74 25.87l12.94 0c6.82,0 13.05,2.68 17.68,7.03l3.97 -13.32c-6.19,-4.19 -13.65,-6.65 -21.65,-6.65l-12.94 0c-7.38,0 -14.3,2.09 -20.19,5.71l-0.01 -0.01c-0.16,0.13 -0.35,0.23 -0.57,0.27 -0.62,0.1 -1.21,-0.29 -1.35,-0.9l-3.03 -10.17 0.01 -0.01c-0.04,-0.1 -0.08,-0.2 -0.1,-0.31 -0.09,-0.52 0.18,-1.01 0.62,-1.24l0.01 -0.01 0 -0c7.33,-3.99 15.71,-6.26 24.6,-6.26l12.94 0c13.92,0 26.6,5.57 35.93,14.6l0.01 0.01c0.18,0.17 0.31,0.4 0.35,0.66 0.04,0.26 -0,0.52 -0.12,0.74l0.02 0.01 -4.14 13.92 -0 -0 -6.2 20.83c-0.01,0.09 -0.04,0.18 -0.08,0.26l-0 0 0 0c-0.18,0.42 -0.6,0.71 -1.08,0.71l-10.57 0c-0.65,0 -1.18,-0.53 -1.18,-1.18l-0.05 -0c-0.6,-6.57 -6.16,-11.75 -12.88,-11.75l-12.94 0c-7.11,0 -12.94,5.82 -12.94,12.94l0 25.87c0,7.12 5.82,12.94 12.94,12.94l12.94 0c6.77,0 12.42,-5.27 12.94,-11.92 0.08,-0.57 0.57,-1.01 1.17,-1.01l10.57 0c0.65,0 1.18,0.53 1.18,1.18l0 27.68c7.93,-7.12 12.94,-17.43 12.94,-28.86l0 -24.69 0.01 -0c-0.03,-0.22 0.01,-0.44 0.1,-0.64l-0.01 -0 6.23 -20.91 0.01 0c0.06,-0.51 0.44,-0.94 0.97,-1.03 0.58,-0.1 1.13,0.25 1.32,0.79l0 -0c2.77,6.32 4.31,13.3 4.31,20.61l0 25.87c0,19.05 -10.44,35.78 -25.87,44.76l0 31.67c0,0.65 -0.53,1.18 -1.18,1.18l-10.57 0c-0.65,0 -1.18,-0.53 -1.18,-1.18l0 -26.34 0 -13.52 0 0 0 -14.19c-3.81,2.22 -8.23,3.49 -12.94,3.49l-12.94 0c-14.23,0 -25.87,-11.64 -25.87,-25.87l0 -25.87c0,-14.23 11.64,-25.87 25.87,-25.87zm-32.25 3.44c0.03,0.07 0.05,0.15 0.07,0.24 0.07,0.4 -0.08,0.79 -0.36,1.06l0.02 0.03c-3.98,6.09 -6.29,13.34 -6.29,21.11l0 25.87c0,21.34 17.46,38.81 38.81,38.81l12.94 0c4.53,0 8.88,-0.79 12.94,-2.23l0.03 -0.01c4.65,-1.66 8.9,-4.19 12.55,-7.39l0 -0 0.35 -0.31 0 15.9c-4,2.33 -8.35,4.14 -12.93,5.33l-0.01 0c-4.14,1.08 -8.47,1.65 -12.94,1.65l-12.94 0c-28.46,0 -51.74,-23.28 -51.74,-51.74l0 -25.87c0,-13.52 5.25,-25.87 13.82,-35.11l0 0c0.17,-0.2 0.42,-0.34 0.7,-0.39 0.59,-0.1 1.15,0.26 1.32,0.81l0 0 3.65 12.25z"/>
  </g>
 </g>
</svg>
